<svg width="18" height="18" viewBox="0 0 14 14" fill="none" xmlns="http://www.w3.org/2000/svg">
<path d="M9.85375 5.14625C9.90024 5.19269 9.93712 5.24783 9.96228 5.30853C9.98744 5.36923 10.0004 5.43429 10.0004 5.5C10.0004 5.56571 9.98744 5.63077 9.96228 5.69147C9.93712 5.75217 9.90024 5.80731 9.85375 5.85375L6.35375 9.35375C6.30732 9.40024 6.25217 9.43712 6.19147 9.46228C6.13077 9.48744 6.06571 9.50039 6 9.50039C5.9343 9.50039 5.86923 9.48744 5.80853 9.46228C5.74783 9.43712 5.69269 9.40024 5.64625 9.35375L4.14625 7.85375C4.05243 7.75993 3.99972 7.63268 3.99972 7.5C3.99972 7.36732 4.05243 7.24007 4.14625 7.14625C4.24007 7.05243 4.36732 6.99972 4.5 6.99972C4.63268 6.99972 4.75993 7.05243 4.85375 7.14625L6 8.29313L9.14625 5.14625C9.19269 5.09976 9.24783 5.06288 9.30853 5.03772C9.36923 5.01256 9.43429 4.99961 9.5 4.99961C9.56571 4.99961 9.63077 5.01256 9.69147 5.03772C9.75217 5.06288 9.80732 5.09976 9.85375 5.14625ZM13.5 7C13.5 8.28558 13.1188 9.54229 12.4046 10.6112C11.6903 11.6801 10.6752 12.5132 9.48744 13.0052C8.29973 13.4972 6.99279 13.6259 5.73192 13.3751C4.47104 13.1243 3.31285 12.5052 2.40381 11.5962C1.49477 10.6872 0.875703 9.52896 0.624899 8.26809C0.374095 7.00721 0.502816 5.70028 0.994786 4.51256C1.48676 3.32484 2.31988 2.30968 3.3888 1.59545C4.45772 0.881218 5.71442 0.5 7 0.5C8.72335 0.50182 10.3756 1.18722 11.5942 2.40582C12.8128 3.62441 13.4982 5.27665 13.5 7ZM12.5 7C12.5 5.9122 12.1774 4.84883 11.5731 3.94436C10.9687 3.03989 10.1098 2.33494 9.10476 1.91866C8.09977 1.50238 6.9939 1.39346 5.92701 1.60568C4.86011 1.8179 3.8801 2.34172 3.11092 3.11091C2.34173 3.8801 1.8179 4.86011 1.60568 5.927C1.39347 6.9939 1.50238 8.09977 1.91867 9.10476C2.33495 10.1098 3.0399 10.9687 3.94437 11.5731C4.84884 12.1774 5.91221 12.5 7 12.5C8.45819 12.4983 9.85617 11.9184 10.8873 10.8873C11.9184 9.85617 12.4983 8.45818 12.5 7Z" fill="#06800A" fill-opacity="0.8"/>
</svg>
