<svg width="12" height="10" viewBox="0 0 12 10" fill="none" xmlns="http://www.w3.org/2000/svg">
<path d="M11.0995 7.81675L7.00031 0.697843C6.89787 0.523433 6.75164 0.378821 6.57609 0.27834C6.40055 0.17786 6.20179 0.125 5.99953 0.125C5.79726 0.125 5.5985 0.17786 5.42296 0.27834C5.24742 0.378821 5.10118 0.523433 4.99874 0.697843L0.899526 7.81675C0.800965 7.98544 0.749023 8.17731 0.749023 8.37269C0.749023 8.56806 0.800965 8.75993 0.899526 8.92862C1.00065 9.10409 1.14664 9.24949 1.32251 9.3499C1.49838 9.45032 1.6978 9.50213 1.90031 9.50003H10.0987C10.3011 9.50197 10.5003 9.45007 10.676 9.34967C10.8517 9.24926 10.9975 9.10395 11.0986 8.92862C11.1973 8.76001 11.2494 8.56819 11.2496 8.37281C11.2497 8.17744 11.1979 7.98553 11.0995 7.81675ZM10.4494 8.55315C10.4136 8.61411 10.3623 8.66447 10.3007 8.69907C10.2391 8.73367 10.1694 8.75125 10.0987 8.75003H1.90031C1.82966 8.75125 1.75995 8.73367 1.69834 8.69907C1.63672 8.66447 1.58542 8.61411 1.54968 8.55315C1.51731 8.49835 1.50024 8.43587 1.50024 8.37222C1.50024 8.30857 1.51731 8.24608 1.54968 8.19128L5.6489 1.07237C5.68536 1.01171 5.7369 0.961503 5.7985 0.926651C5.86011 0.891798 5.92968 0.873481 6.00046 0.873481C6.07124 0.873481 6.14082 0.891798 6.20243 0.926651C6.26403 0.961503 6.31557 1.01171 6.35203 1.07237L10.4512 8.19128C10.4833 8.24625 10.5001 8.30882 10.4998 8.37247C10.4994 8.43612 10.482 8.49852 10.4494 8.55315ZM5.62453 5.75003V3.87503C5.62453 3.77557 5.66404 3.68019 5.73436 3.60987C5.80469 3.53954 5.90007 3.50003 5.99953 3.50003C6.09898 3.50003 6.19437 3.53954 6.26469 3.60987C6.33502 3.68019 6.37453 3.77557 6.37453 3.87503V5.75003C6.37453 5.84949 6.33502 5.94487 6.26469 6.0152C6.19437 6.08552 6.09898 6.12503 5.99953 6.12503C5.90007 6.12503 5.80469 6.08552 5.73436 6.0152C5.66404 5.94487 5.62453 5.84949 5.62453 5.75003ZM6.56203 7.43753C6.56203 7.54878 6.52904 7.65754 6.46723 7.75004C6.40542 7.84254 6.31757 7.91464 6.21479 7.95721C6.112 7.99979 5.9989 8.01093 5.88979 7.98922C5.78067 7.96752 5.68045 7.91394 5.60178 7.83528C5.52311 7.75661 5.46954 7.65638 5.44783 7.54727C5.42613 7.43815 5.43727 7.32505 5.47984 7.22227C5.52242 7.11949 5.59452 7.03164 5.68702 6.96983C5.77952 6.90802 5.88827 6.87503 5.99953 6.87503C6.14871 6.87503 6.29178 6.93429 6.39727 7.03978C6.50276 7.14527 6.56203 7.28835 6.56203 7.43753Z" fill="currentColor"/>
</svg>
