<svg width="10" height="10" viewBox="0 0 10 10" fill="none" xmlns="http://www.w3.org/2000/svg">
<path d="M8.37525 6.12499C8.04379 6.12482 7.7217 6.23498 7.45978 6.43812L6.3765 5.59437C6.45828 5.40689 6.50041 5.20453 6.50025 4.99999C6.50025 4.96531 6.50025 4.93062 6.4965 4.8964L7.11666 4.68968C7.31286 4.99228 7.61151 5.21406 7.95791 5.3144C8.3043 5.41474 8.67526 5.38692 9.00281 5.23604C9.33037 5.08516 9.59261 4.82131 9.74148 4.49284C9.89035 4.16436 9.9159 3.79324 9.81344 3.44747C9.71098 3.10169 9.48737 2.8044 9.18358 2.61006C8.87978 2.41572 8.51614 2.33733 8.15926 2.38926C7.80238 2.44119 7.47616 2.61996 7.24035 2.89281C7.00453 3.16567 6.87492 3.51436 6.87525 3.87499C6.87525 3.90968 6.87525 3.94437 6.879 3.97859L6.25884 4.18531C6.1229 3.97514 5.93651 3.80233 5.71668 3.68263C5.49685 3.56293 5.25056 3.50014 5.00025 3.49999C4.91748 3.50017 4.83487 3.50706 4.75322 3.52062L4.43259 2.79687C4.70945 2.57566 4.89904 2.26358 4.96777 1.91594C5.03651 1.5683 4.97994 1.20755 4.8081 0.897626C4.63626 0.587706 4.36024 0.348633 4.02897 0.222781C3.6977 0.096929 3.33257 0.0924254 2.99829 0.210069C2.66402 0.327712 2.38219 0.559904 2.20276 0.865491C2.02333 1.17108 1.95788 1.53032 2.01802 1.87956C2.07816 2.22879 2.25999 2.54545 2.53131 2.77342C2.80262 3.00139 3.14588 3.12594 3.50025 3.12499C3.58302 3.12482 3.66563 3.11792 3.74728 3.10437L4.06791 3.82624C3.79601 4.04144 3.6073 4.34439 3.53403 4.68331C3.46075 5.02223 3.50747 5.37608 3.66619 5.68437L2.46103 6.75499C2.15774 6.55053 1.79029 6.4637 1.42756 6.51078C1.06483 6.55785 0.731723 6.7356 0.490672 7.01071C0.249621 7.28581 0.117179 7.63939 0.11817 8.00516C0.119161 8.37093 0.253517 8.72379 0.496055 8.99758C0.738594 9.27138 1.07266 9.44732 1.43564 9.49243C1.79862 9.53754 2.16559 9.44872 2.46777 9.24261C2.76995 9.03651 2.98658 8.72728 3.07707 8.37288C3.16756 8.01847 3.12569 7.64323 2.95931 7.31749L4.16447 6.24687C4.42541 6.42256 4.7351 6.51152 5.0495 6.50108C5.3639 6.49064 5.667 6.38135 5.91572 6.18874L6.999 7.03249C6.91747 7.21939 6.87535 7.42109 6.87525 7.62499C6.87525 7.92167 6.96322 8.21168 7.12805 8.45835C7.29287 8.70502 7.52714 8.89728 7.80123 9.01081C8.07531 9.12434 8.37691 9.15405 8.66789 9.09617C8.95886 9.03829 9.22613 8.89543 9.43591 8.68565C9.64569 8.47588 9.78855 8.2086 9.84643 7.91763C9.90431 7.62666 9.8746 7.32506 9.76107 7.05097C9.64754 6.77688 9.45528 6.54261 9.20861 6.37779C8.96193 6.21297 8.67192 6.12499 8.37525 6.12499ZM8.37525 3.12499C8.52359 3.12499 8.66859 3.16898 8.79193 3.25139C8.91527 3.3338 9.01139 3.45094 9.06816 3.58798C9.12493 3.72503 9.13978 3.87583 9.11084 4.02131C9.0819 4.1668 9.01047 4.30044 8.90558 4.40532C8.80069 4.51021 8.66705 4.58164 8.52157 4.61058C8.37608 4.63952 8.22528 4.62467 8.08824 4.5679C7.95119 4.51114 7.83406 4.41501 7.75165 4.29167C7.66924 4.16833 7.62525 4.02333 7.62525 3.87499C7.62525 3.67608 7.70427 3.48532 7.84492 3.34466C7.98557 3.20401 8.17634 3.12499 8.37525 3.12499ZM2.75025 1.62499C2.75025 1.47666 2.79424 1.33165 2.87665 1.20832C2.95906 1.08498 3.07619 0.988851 3.21324 0.932085C3.35028 0.875319 3.50108 0.860467 3.64657 0.889406C3.79205 0.918345 3.92569 0.989775 4.03058 1.09466C4.13547 1.19955 4.2069 1.33319 4.23584 1.47868C4.26478 1.62416 4.24993 1.77496 4.19316 1.91201C4.13639 2.04905 4.04026 2.16619 3.91693 2.2486C3.79359 2.33101 3.64859 2.37499 3.50025 2.37499C3.30134 2.37499 3.11057 2.29598 2.96992 2.15532C2.82927 2.01467 2.75025 1.82391 2.75025 1.62499ZM1.62525 8.74999C1.47691 8.74999 1.33191 8.70601 1.20857 8.6236C1.08524 8.54119 0.989106 8.42405 0.93234 8.28701C0.875574 8.14996 0.860722 7.99916 0.889661 7.85368C0.9186 7.70819 0.99003 7.57455 1.09492 7.46966C1.19981 7.36478 1.33345 7.29334 1.47893 7.26441C1.62442 7.23547 1.77522 7.25032 1.91226 7.30708C2.04931 7.36385 2.16644 7.45998 2.24885 7.58332C2.33126 7.70665 2.37525 7.85166 2.37525 7.99999C2.37525 8.19891 2.29623 8.38967 2.15558 8.53032C2.01493 8.67098 1.82416 8.74999 1.62525 8.74999ZM4.25025 4.99999C4.25025 4.85166 4.29424 4.70665 4.37665 4.58332C4.45906 4.45998 4.57619 4.36385 4.71324 4.30708C4.85028 4.25032 5.00108 4.23547 5.14657 4.26441C5.29205 4.29334 5.42569 4.36478 5.53058 4.46966C5.63547 4.57455 5.7069 4.70819 5.73584 4.85368C5.76478 4.99916 5.74993 5.14996 5.69316 5.28701C5.63639 5.42405 5.54026 5.54119 5.41693 5.6236C5.29359 5.70601 5.14859 5.74999 5.00025 5.74999C4.80134 5.74999 4.61057 5.67098 4.46992 5.53032C4.32927 5.38967 4.25025 5.19891 4.25025 4.99999ZM8.37525 8.37499C8.22691 8.37499 8.08191 8.33101 7.95857 8.2486C7.83524 8.16619 7.73911 8.04905 7.68234 7.91201C7.62557 7.77496 7.61072 7.62416 7.63966 7.47868C7.6686 7.33319 7.74003 7.19955 7.84492 7.09466C7.94981 6.98978 8.08345 6.91834 8.22893 6.88941C8.37442 6.86047 8.52522 6.87532 8.66226 6.93208C8.79931 6.98885 8.91644 7.08498 8.99885 7.20832C9.08126 7.33165 9.12525 7.47666 9.12525 7.62499C9.12525 7.82391 9.04623 8.01467 8.90558 8.15532C8.76493 8.29598 8.57416 8.37499 8.37525 8.37499Z" fill="currentColor"/>
</svg>
