<svg width="22" height="24" viewBox="0 0 22 24" fill="none" xmlns="http://www.w3.org/2000/svg">
<path d="M18.1031 17.0053C17.1949 17.0053 16.347 17.3067 15.7415 17.9097L7.0836 12.9048C7.14423 12.6033 7.20485 12.3618 7.20485 12.0604C7.20485 11.7588 7.14423 11.5174 7.0836 11.2159L15.6209 6.27157C16.2867 6.87457 17.1345 7.23615 18.1031 7.23615C20.1009 7.23615 21.7358 5.60789 21.7358 3.61805C21.7358 1.62832 20.1009 0 18.1031 0C16.1051 0 14.4703 1.62832 14.4703 3.6181C14.4703 3.91963 14.5306 4.1611 14.5916 4.46257L6.05455 9.4069C5.3885 8.80385 4.54091 8.44232 3.57214 8.44232C1.57426 8.44232 0 10.0706 0 12.0604C0 14.0502 1.63454 15.6785 3.63271 15.6785C4.60148 15.6785 5.44906 15.3169 6.11512 14.7139L14.7127 19.7188C14.6518 19.9597 14.5915 20.2012 14.5915 20.5026C14.5915 22.4325 16.1654 24 18.103 24C20.0405 24 21.6145 22.4325 21.6145 20.5026C21.6145 18.5728 20.0406 17.0053 18.1031 17.0053Z" fill="white"/>
</svg>
