<svg width="22" height="30" viewBox="0 0 22 30" fill="none" xmlns="http://www.w3.org/2000/svg">
<path d="M10.9865 4.33334V0.333336L5.65316 5.66667L10.9865 11V7C15.3998 7 18.9865 10.5867 18.9865 15C18.9865 16.3467 18.6532 17.6267 18.0532 18.7333L19.9998 20.68C21.0398 19.04 21.6532 17.0933 21.6532 15C21.6532 9.10667 16.8798 4.33334 10.9865 4.33334ZM10.9865 23C6.57316 23 2.98649 19.4133 2.98649 15C2.98649 13.6533 3.31982 12.3733 3.91982 11.2667L1.97316 9.32C0.933157 10.96 0.319824 12.9067 0.319824 15C0.319824 20.8933 5.09316 25.6667 10.9865 25.6667V29.6667L16.3198 24.3333L10.9865 19V23Z" fill="#B9C2CE"/>
</svg>
